<?xml version="1.0" encoding="UTF-8"?>
<svg width="1200pt" height="1200pt" version="1.1" viewBox="0 0 1200 1200" xmlns="http://www.w3.org/2000/svg">
 <path d="m1187.1 129.24c-1.8125-5.4375-1.9219-10.992-8.3984-13.129-6.4688-3.7422-11.52-7.3438-18.574-10.43-7.9453-3.4688-15.719-8.1953-23.148-12.637-8.7617-5.2422-15.574-12.492-25.766-14.891-7.3203-1.7148-15.707 0-22.621 2.6758-2.6406 1.0195-10.691 5.7734-11.965 9.5898-3.8047-2.125-17.629 0.35938-22.98 1.2461-13.285 2.2422-30.238 7.2852-41.016 15.48-5.8203 4.4414-28.57 7.5977-33.133 9.1445-12.805 4.3203-22.055 8.4844-33.672 14.746 0.070313-5.0508 3.5391-10.008-1.0195-14.09-4.9062-4.4023-13.031-3.5273-13.031-11.387 3.1445 0.046875 3.4805-1.8242 6.8047-2.8555 5.0625-1.5469 11.316-0.94922 15.887-3.6953-0.023438 0.50391-0.058594 0.99609-0.085938 1.5 0.22656-0.42187 0.42188-0.82812 0.63672-1.2617 1.8945 3.3359 4.7539 3.7305 4.7539 8.0039-0.70703 2.1602-0.51563 4.332 0.66016 6.2656 3.4805-6.7188 4.8125-15.504-1.2109-21.289-5.3867-5.1719-15.758 1.5352-21.469 3.3828-4.1289-5.5938 9.9727-14.555 12.898-15.395 0.73047 2.9023 2.9023 6.5039 2.8086 9.8516 4.5117-5.1367 4.7773-23.977-6.0469-20.941-10.379 2.9023-17.426 12.395-27 17.102 1.6445-3.4336 12.047-24.66 2.6641-23.953-5.5547 0-15.59 4.0195-15.434 11.496 3.3594-2.3867 6.2383-2.9141 7.8359-3.5625-0.5625 7.2852-3.5898 10.945-9.4453 14.496-4.3789-28.094-27.613 0.16797-16.211 7.7383-0.79297-2.9414-0.22656-5.2578 2.543-6.8281-0.10938 0.43359-0.011719 0.49219 0.25391 0.19141 0.17969 5.5859 2.0039 9.5352-2.2227 13.746-1.6328 1.5469-4.8477 1.5-6.4336 2.6406-8.7734 13.164-29.113 18.277-30.168 36.828-0.45703 8.3164 1.8711 14.652 4.5 22.32 1.4883 4.3672 6.2148 9.2383 6.457 13.535 0.12109 2.1367-9.168 8.1367-11.258 9.9258-6.8047 6.8047-14.867 12.371-22.645 18.133-22.043 16.309-41.184 34.246-57.684 55.332-6.4062 8.1953-13.68 16.621-19.777 25.211-4.7539 6.707-12.359 15.059-16.164 22.117-17.496 32.426-30.098 56.449-34.5 84.527-2.3984 15.254-1.3555 28.188 1.7148 43.105 1.2461 7.7383 3.3125 15.023 2.0273 22.906-3.8047 1.9805-14.207-1.5586-18.109-1.9453-12.875-1.2617-25.727 0.46875-38.617 1.5586-13.945 1.1992-34.262-2.3867-35.617 16.559-0.625 8.7734-2.7227 17.82 0.86328 26.016 3.1094 5.4492 6.4336 10.621 10.078 15.695 4.3906 6.1445 6.5273 12.133 10.633 18.348 1.7383 2.6406 6.5156 7.2734 8.6875 9.5391-7.9688-0.33594-18.445-4.1523-24.672-9.1328-6.5273-5.2578-10.621-14.137-17.93-18.383-2.7969-1.1406-4.8945-1.5469-6.168-1.2617-1.0078 0.23828-3.707 0.92578-3.625 2.0625 0.035156 0.32422-2.7461 1.9062-3.8047 5.5078 2.543-2.125 5.3398-3.3828 5.9766-2.7734 0.89844 0.875 1.9062 1.8594 2.6641 2.9648 5.832 6.9961 11.027 14.293 17.988 20.219-18.215-1.9336-34.727-9.9375-52.801-12.504-19.055-2.7227-42.562 1.043-60.66 6.5156-1.3086 0.046874-5.4102 0.96094-4.5977 3.0977 1.3086 3.3359 5.7734-0.55078 7.7266-0.55078 11.988-1.1875 24.324-1.8242 36.312-0.98437 9.0586 0.625 20.398 1.0938 28.766 4.7773 7.2852 1.9922 18.227 3.5156 24.742 7.6445-20.473 5.8906-41.867 21.684-56.195 37.68-6.8281 7.6328-16.234 17.352-22.668 25.32-1.9688 2.4258-1.2734 5.0898-2.7617 7.2227-4.9219 7.0195-13.547 16.777-5.7461 24.625-0.38281-3.2148-0.19141-4.9453 1.0938-7.668 0.39453-0.85156 2.9141-3.3945 3.3945-4.2461 4.5469-8.0742 10.789-14.664 16.754-21.215 7.2734-6.2383 14.016-12.875 21-19.512 9.2656-8.7969 21.48-20.27 32.664-26.293 8.4844-4.5703 15.875-5.3047 26.09-5.3047 3.707 0 7.0078 0.86328 10.645 1.3438 2.2578 0.28906 5.1133 2.5195 5.3047 2.5781 6.7305 1.9922 14.785 1.1875 21.719 2.0391 10.859 1.3672 16.801 5.5664 27.637 0.99609-9.8984 23.52-30.695 97.141-35.195 110.75-4.332 13.152-38.34 104.34-42.59 117.07-3.8047 11.449-26.148 53.34-33.133 62.34-5.8438 7.5352-28.117 39.469-33.816 48-14.699 24.984-32.258 48.695-53.496 68.891-21 20.004-44.461 37.523-68.062 54.371-13.453 9.6133-25.98 16.477-41.484 22.391-12.938 4.9453-61.164 23.773-70.129 26.293-19.02 5.3516-38.258 9.0586-57.312 14.051-14.543 3.793-75.336 15.266-89.293 16.895-32.074 3.7422-64.32 5.1836-96.434 8.7852-6.7852 0.82031-13.863 0.82031-20.488 2.7148-5.4961 1.3789-12.539 0.82812-17.676 3.3594-5.3164 2.6172 0.63672 10.656 4.1641 11.965 6.3828 2.3984 21.133 2.1016 29.305 1.7656 9.7578-0.37109 19.488 0.875 29.23 1.3086 11.148 0.51562 22.129-1.2461 33.254-1.4297 20.844-0.28906 75.852-6.1211 82.766-6.8164 9.4336-0.94922 49.512-6 58.105-7.1172 14.832-1.9062 72.035-16.922 84.516-20.809 8.1953-2.5664 72.121-24.828 84.504-30.434 15.539-7.0312 31.402-14.555 45.996-23.41 14.461-8.7734 70.957-49.5 82.801-63.023 5.8906-6.7305 47.762-55.414 58.801-67.68 0.98438-1.1055 43.32-63.73 50.508-78.312 6.2773-12.77 14.258-24.266 21.266-36.59 7.2852-14.566 44.184-96.742 53.809-124.49 5.125-14.762 11.016-28.297 17.16-42.539 6.3477-14.734 13.246-26.723 21.984-40.043 12.898-19.645 14.184-51.348 44.258-49.488 11.93 0.74219 22.297 2.5938 34.332 0.16797-14.52 9.3359-26.316 28.586-28.547 45.684-0.82813 9.2148 2.375 20.855 3.7422 30.023 0.91016 6.1445 4.7383 12.371 9.9258 15.371-2.0391 5.1133 36.48 3.6367 40.402 3.6367 10.117 0 20.832 4.1875 30.348 7.1875 10.754 3.6016 16.273 11.281 23.93 18.938 5.2422 5.2578 14.988 10.836 18.539 17.23 3.5898 7.1289 8.9648 14.102 15.238 19.094 3.3242 2.6758 0.82812 7.2344 0.82812 10.738 0 5.0391 2.832 8.7969 1.0781 14.137-1.9688 5.9883-6.3008 11.723-9.7695 16.895 23.438 6.0586 28.633-31.176 23.484-46.523-3.0703-7.7773-5.6992-13.738-11.688-19.621-3.7422-3.6836-11.148-8.1484-11.148-13.586 0-7.8477-1.4531-12.887-8.5547-18.133-7.1641-5.2812-17.82-9.6602-26.543-11.41-8.3633-1.6914-8.6758-18.098-18.602-20.316-10.02-2.2578-26.988 0.5625-35.316-6.4062 6.2031-11.352 19.535-20.746 27.996-30.504 10.094-11.617 17.797-26.051 23.723-40.199 1.1641-3.8633-0.68359-17.652-0.97266-22.043-0.55078-8.8672-11.879-13.754-19.066-16.57-19.414-7.6211-40.234-11.93-59.746-18.91 2.9883-6.2539 10.008-12.133 14.258-17.508 7.8008-9.8633 15.215-20.242 21.695-31.031 9.8516-16.43 23.195-35.426 27-54.492 2.1133-10.488 8.6289-22.883 13.367-31.621 3.9375-7.2734 12.637-14.93 17.723-22.922 5.0156-7.7773 13.609-13.355 18.168-21.156 1.9922 8.7227 12.625 19.766 17.629 27.492 2.5547 6.8984 12.863 15.301 18.238 20.062 10.906 9.6836 18.359 10.895 32.27 14.207 10.402 1.957 20.305 0.75781 30.406-2.1367 9.707-2.7461 12.59-9.3945 18.84-15.73 6.0703-6.1445 20.797 5.9297 19.824 13.512 5.543-8.5938-3.4688-20.832-11.461-24.852-5.543-2.2188-11.387-0.48047-13.859 4.8945-1.1289 0.44531-4.2852 1.9219-4.2344-0.15625 2.1836-4.7891 6.9102-8.9883 9.9258-13.789 1.4883-2.3984 3.2031-5.125 5.0742-7.2852 3.0703-3.5156 8.0625-2.4609 7.5469-8.2812 2.8789-1.1875 7.4023 5.5078 8.3281 7.6211-0.88672-8.0039-6.9492-19.078-17.102-15.602-9.2539 3.1562-12.793 20.137-20.281 26.844 0.78125-3.1914 0.68359-19.094 6.8633-15.781 0.57422-4.9805-1.2461-8.0625-3.3477-12.277-5.3516-10.738-11.113 13.934-11.594 15.648-1.5234 10.535 0.15625 19.355-13.754 19.391-1.2617-6.5391-2.5312-7.8711 4.7539-4.3086-1.0781-2.2812-3.5391-7.5977-6.0352-8.4609-3.1094-1.0664-9.3945-2.2305-9.7305 2.3047-3.5156-3.0977-6.5625-6.168-10.199-9.0977-5.8555-4.7773-6.3945-12.383-10.621-18.383-7.1641-10.211-13.211-23.832-10.02-36.805 0.9375-5.7344 6.4219-12.191 10.43-16.199 2.6641-2.6641 15.238-2.6289 19.57-3.9609 13.824-4.2109 27.59-13.32 40.402-20.242 10.465-5.6641 21.098-8.9414 32.074-13.141 11.914-4.5703 23.102-11.734 35.184-16.559 13.02-5.207 26.746-13.906 37.836-22.57 6.5156-5.1016 13.715-12.047 16.586-19.992 2.6992-5.2344 8.2539-12.648 5.1836-18.711zm-241.5 2.0312c-0.73047 0.28906-1.4648 0.57422-2.207 0.86328-0.21484 0.085938-0.17969 0.070313-0.011719 0-4.9453 1.9219-9.9844 3.9727-14.41 6.8047-6.3477 4.043-13.066 7.4766-20.305 9.9961-1.8711-3.3359-4.2617-9.6836-1.6562-11.473 7.6914-5.2422 14.195-11.16 16.477-20.594 6.9258-0.3125 10.02 2.7227 16.246 4.6211 1.0664 0.625 6.6094 9.5039 5.8672 9.7812zm76.402 88.293c-0.75781 0.3125-0.22656 0.085938 0 0-2.0156 0.83984-2.9414 1.1758-4.0781-0.96094 2.9883-2.9883 8.7734-1.5586 9.0977-7.6797 0.17969-3.2539-2.6406-10.633-8.4844-15.469-3.9492-3.2539-10.895-4.7148-13.043-5.4102 2.8086-6.4453 20.746 2.0625 18.359 8.5938 1.9688-0.35938 8.1367 9.2539 8.0625 9.5156 7.4727 8.2305-3.9023 8.9023-9.9141 11.41zm63.961-71.469c3.8164-0.83984 10.609 2.9766 7.6445 2.543-2.9766-0.43359-12.73 2.543-12.73 2.543-0.003906 0 1.2695-4.2344 5.0859-5.0859zm-10.02-56.414c-0.15625 0.26562-1.0469 0.42187 0 0zm1.9531 64.32h0.39453c-0.98438 0-1.0312 0.5625-1.8477-0.58984 6.8984-0.80469 10.512 6.7695 18.121 6.7695 8.1602 0 14.746-7.1289 4.1875-10.848 1.5586-0.21484 3.0234 0.17969 4.4023 0.91016 2.7227 1.5 4.9336 3.2383 8.0898 3.9102-5.5898 15.855-26.184 11.848-33.348-0.15234z"/>
 <path d="m599.82 599.68c0.88672 1.7539-0.12109-0.38281 0 0z"/>
</svg>
